# xmcd
#
# Track frame offsets:
#	150
#	16000
#	35486
#	60253
#	77525
#	93164
#	113503
#	150062
#	170714
#	192725
#	209945
#	225311
#	250726
#
# Disc length: 3626 seconds
#
# Revision: 1
# Processed by: cddbd v1.5.2PL0 Copyright (c) Steve Scherf et al.
# Submitted via: audiograbber 1.83.01
#
DISCID=930e280d
DTITLE=The John Butler Trio  - Grand National
DYEAR=2007
DGENRE=Blues/Rock
TTITLE0=Better Than 
TTITLE1=Daniella 
TTITLE2=Funky Tonight 
TTITLE3=Caroline 
TTITLE4=Good Excuse 
TTITLE5=Used To Get High 
TTITLE6=Gov Did Nothin' 
TTITLE7=Groovin' Slowly 
TTITLE8=Devil Running 
TTITLE9=Losing You 
TTITLE10=Nowhere Man 
TTITLE11=Fire In The Sky 
TTITLE12=Gonna Take It 
EXTD=
EXTT0=
EXTT1=
EXTT2=
EXTT3=
EXTT4=
EXTT5=
EXTT6=
EXTT7=
EXTT8=
EXTT9=
EXTT10=
EXTT11=
EXTT12=
PLAYORDER=
